<svg width="20" height="20" viewBox="0 0 20 20" fill="none" xmlns="http://www.w3.org/2000/svg">
<path fill-rule="evenodd" clip-rule="evenodd" d="M5.5 1H14.504C16.987 1 19 3.013 19 5.496V14.505C19 16.987 16.987 19 14.504 19H5.496C3.013 19 1 16.987 1 14.504V5.5C1 3.015 3.015 1 5.5 1V1Z" stroke="#16266C" stroke-width="1.5" stroke-linecap="round" stroke-linejoin="round"/>
<path d="M6.08201 9.983C5.93101 9.595 5.83301 9.185 5.83301 8.75C5.83301 6.679 7.69901 5 10 5C12.301 5 14.167 6.679 14.167 8.75C14.167 10.821 12.488 12.5 10.417 12.5C9.59201 12.5 8.83601 12.226 8.21701 11.774" stroke="#16266C" stroke-width="1.5" stroke-linecap="round" stroke-linejoin="round"/>
<path d="M8.98 8.30957L7.5 14.9996" stroke="#16266C" stroke-width="1.5" stroke-linecap="round" stroke-linejoin="round"/>
</svg>
