<svg width="38" height="42" viewBox="0 0 38 42" fill="none" xmlns="http://www.w3.org/2000/svg">
<path d="M19.3368 19.7986C24.804 19.7986 29.2361 15.3665 29.2361 9.89929C29.2361 4.43206 24.804 0 19.3368 0C13.8696 0 9.4375 4.43206 9.4375 9.89929C9.4375 15.3665 13.8696 19.7986 19.3368 19.7986Z" fill="#C5531D"/>
<path d="M24.8105 20.3711H13.8611C6.61975 20.3711 0.75 26.2403 0.75 33.4811V41.9994H37.9205V33.4811C37.9205 26.2403 32.0513 20.3711 24.8105 20.3711ZM27.1348 39.1345C26.726 39.5428 26.0039 39.4847 25.522 39.0023L21.295 34.7752C20.8556 35.2527 20.4042 35.7318 19.9272 36.2087L18.5496 34.8316L14.2816 39.0991C13.8738 39.508 13.2099 39.508 12.8015 39.0991C12.3927 38.6908 12.3932 38.0279 12.8015 37.6196L17.0696 33.3505L18.4699 31.9507L15.517 28.9973C14.9173 29.5511 13.9839 29.5417 13.4008 28.9597L11.7061 27.265C11.2944 26.8522 11.1732 26.2652 11.3298 25.7429L13.7831 26.8826L12.5598 24.2485L12.588 24.2197L15.2227 25.4436L14.0951 23.0152C14.6036 22.8819 15.1663 23.008 15.5641 23.4069L17.2588 25.1016C17.8563 25.6992 17.8563 26.6674 17.2588 27.2639L17.0026 27.5211L19.951 30.4701L21.3381 29.083L26.7918 23.6288C28.0754 24.9124 26.2828 28.8761 22.6809 33.2L27.0026 37.5228C27.4845 38.0036 27.5431 38.7262 27.1348 39.1345Z" fill="#C5531D"/>
</svg>
