<svg width="50" height="42" viewBox="0 0 50 42" fill="none" xmlns="http://www.w3.org/2000/svg">
<path d="M49.0882 10.7059H32.9635C32.4941 9.75056 31.9012 8.86938 31.2012 8.07058L32.4859 6.78587C32.807 6.46469 32.807 5.94586 32.4859 5.62467C32.1647 5.30353 31.6459 5.30353 31.3247 5.62467L30.04 6.90942C28.4012 5.47644 26.4 4.49644 24.2753 4.08467V1.64706H25.7576C26.8365 1.63057 26.8365 0.0164364 25.7576 0H18.0659C16.9871 0.0164364 16.9871 1.63057 18.0659 1.64706H19.5482V4.07648C15.8012 4.80114 12.5565 7.27173 10.8518 10.7059H1.32353C0.870598 10.7059 0.5 11.0765 0.5 11.5294V41.1765C0.5 41.6294 0.870598 42 1.32353 42H49.0882C49.5412 42 49.9118 41.6294 49.9118 41.1765V11.5294C49.9118 11.0765 49.5412 10.7059 49.0882 10.7059ZM41.6765 18.1176H44.9706C46.0577 18.1341 46.0494 19.7482 44.9706 19.7647H41.6765C40.5894 19.7482 40.5976 18.1341 41.6765 18.1176ZM41.6765 21.4118H44.9706C46.0577 21.4282 46.0494 23.0423 44.9706 23.0588H41.6765C40.5894 23.0423 40.5976 21.4282 41.6765 21.4118ZM11.2224 15.68C11.387 10.6235 15.48 6.19291 20.4953 5.59175C26.68 4.6035 32.7741 9.91528 32.6176 16.1988C32.6176 22.1035 27.8165 26.9047 21.9118 26.9047C15.8341 26.9212 10.9012 21.7576 11.2224 15.6882C11.2224 15.6882 11.2224 15.6882 11.2224 15.68ZM36.7353 36.2353H6.26471V16.4706H9.55882C9.62472 23.0177 15.3565 28.6506 21.9118 28.5518C28.4671 28.6506 34.1988 23.0177 34.2647 16.4706H36.7353V36.2353ZM46.6176 35.4118C46.6176 35.8647 46.247 36.2353 45.7941 36.2353H41.6765C41.2235 36.2353 40.8529 35.8647 40.8529 35.4118V30.4706C40.8529 30.0177 41.2235 29.6471 41.6765 29.6471H45.7941C46.247 29.6471 46.6176 30.0177 46.6176 30.4706V35.4118Z" fill="#C5531D"/>
<path d="M14.2258 17.0212H21.9094C22.3642 17.0212 22.7329 16.6524 22.7329 16.1976V10.8117C22.7148 9.73075 21.1044 9.7281 21.0859 10.8117L21.0859 15.3741H14.2258C13.1439 15.3922 13.1431 17.0029 14.2258 17.0212Z" fill="#C5531D"/>
</svg>
