<svg width="36" height="42" viewBox="0 0 36 42" fill="none" xmlns="http://www.w3.org/2000/svg">
<path d="M19.406 7.0602C22.8536 7.3878 26.0143 8.7108 28.5926 10.731L29.694 9.6348L28.8669 8.8116C28.5167 8.463 28.5167 7.8918 28.8669 7.5432L30.0696 6.3462C30.4198 5.9976 30.9937 5.9976 31.344 6.3462L34.8253 9.8112C35.1756 10.1598 35.1756 10.731 34.8253 11.0796L33.6227 12.2766C33.2724 12.6252 32.6985 12.6252 32.3483 12.2766L31.5212 11.4534L30.5 12.4698C33.4792 15.6072 35.3064 19.8366 35.3064 24.4944C35.3064 29.3286 33.3357 33.705 30.154 36.876C26.9638 40.0386 22.5667 42 17.7097 42C12.8526 42 8.45558 40.0386 5.2696 36.8718C2.08785 33.7008 0.117188 29.3244 0.117188 24.4902C0.117188 19.8366 1.94438 15.603 4.92358 12.4656L3.90238 11.4492L3.07529 12.2724C2.72504 12.621 2.15115 12.621 1.8009 12.2724L0.598248 11.0754C0.248002 10.7268 0.248002 10.1556 0.598248 9.807L4.07961 6.342C4.42986 5.9934 5.00375 5.9934 5.354 6.342L6.55665 7.539C6.9069 7.8876 6.9069 8.4588 6.55665 8.8074L5.72957 9.6306L6.83094 10.7268C9.40926 8.7024 12.5657 7.3836 16.0175 7.056V4.5864H14.4773C13.8232 4.5864 13.2915 4.053 13.2915 3.4062V1.1802C13.2915 0.5292 13.8274 0 14.4773 0H20.9547C21.6088 0 22.1405 0.5334 22.1405 1.1802V3.4062C22.1405 4.0572 21.6046 4.5864 20.9547 4.5864H19.4145V7.0602H19.406ZM23.6006 14.3388L17.7097 24.4902V12.768C11.2069 12.768 5.93212 18.018 5.93212 24.4902C5.93212 30.9624 11.2069 36.2124 17.7097 36.2124C24.2124 36.2124 29.4872 30.9624 29.4872 24.4902C29.4872 20.1516 27.1199 16.3632 23.6006 14.3388ZM27.9723 14.2758C25.3476 11.6592 21.7185 10.0422 17.7097 10.0422C13.7008 10.0422 10.0718 11.6592 7.44704 14.2758C4.81808 16.8882 3.19345 20.5002 3.19345 24.4902C3.19345 28.4802 4.81808 32.0922 7.44704 34.7046C10.0718 37.3212 13.7008 38.9382 17.7097 38.9382C21.7185 38.9382 25.3476 37.3212 27.9723 34.7046C30.6013 32.0922 32.2259 28.4802 32.2259 24.4902C32.2259 20.5002 30.6013 16.8882 27.9723 14.2758Z" fill="#C5531D"/>
</svg>
