<svg width="270" height="393" viewBox="0 0 270 393" fill="none" xmlns="http://www.w3.org/2000/svg">
<path d="M127.945 507C173.366 507 203.405 494.055 225.515 476.556C243.298 462.413 257.718 444.914 266.85 424.058C268.772 419.504 270.214 414.949 269.974 409.915C269.733 405.121 267.33 400.566 262.764 398.648C260.787 397.698 258.533 397.491 256.415 398.063C254.296 398.635 252.455 399.949 251.229 401.765C233.445 425.976 205.088 439.879 169.04 437.482C118.333 431.01 89.7346 410.634 63.7802 374.197C37.8257 337.76 24.8486 291.016 24.8486 229.409C24.8486 190.095 30.6162 154.857 41.9112 123.933C53.2062 93.01 68.8269 68.5589 88.7734 50.8199C108.72 33.0809 131.31 24.2114 156.543 24.2114C170.482 24.2114 181.296 26.8483 188.746 31.8823C196.436 36.9164 200.041 43.8681 200.041 52.7376C200.041 58.9702 196.917 66.1618 190.669 73.593C186.343 79.3462 182.978 84.1404 181.296 87.7362C179.374 91.5716 178.412 96.8454 178.412 103.797C178.412 115.783 182.257 125.372 189.707 132.323C197.398 139.275 207.491 142.871 219.987 142.871C232.484 142.871 243.779 138.316 251.229 128.967C258.919 119.858 262.524 107.393 262.524 91.3319C262.524 64.7234 252.911 42.9093 233.686 25.6497C214.46 8.62987 188.746 0 156.303 0C112.565 0 73.3929 11.9859 38.787 36.1972C3.94077 60.1688 -23.2152 92.7703 -42.6811 133.522C-62.3872 174.274 -72 218.861 -72 267.044C-72 315.227 -63.3485 353.582 -47.4875 389.06C-30.6651 426.455 -4.95101 457.379 25.5695 476.316C56.3303 495.254 88.533 506.281 127.705 506.281" fill="white"/>
</svg>
