<svg width="24" height="24" viewBox="0 0 24 24" fill="none" xmlns="http://www.w3.org/2000/svg">
<path fill-rule="evenodd" clip-rule="evenodd" d="M7.5 3H16.504C18.987 3 21 5.013 21 7.496V16.505C21 18.987 18.987 21 16.504 21H7.496C5.013 21 3 18.987 3 16.504V7.5C3 5.015 5.015 3 7.5 3V3Z" stroke="#16266C" stroke-width="1.5" stroke-linecap="round" stroke-linejoin="round"/>
<path d="M8.08103 11.983C7.93003 11.595 7.83203 11.185 7.83203 10.75C7.83203 8.679 9.69803 7 11.999 7C14.3 7 16.166 8.679 16.166 10.75C16.166 12.821 14.487 14.5 12.416 14.5C11.591 14.5 10.835 14.226 10.216 13.774" stroke="#16266C" stroke-width="1.5" stroke-linecap="round" stroke-linejoin="round"/>
<path d="M10.98 10.3096L9.5 16.9996" stroke="#16266C" stroke-width="1.5" stroke-linecap="round" stroke-linejoin="round"/>
</svg>
