<svg width="20" height="21" viewBox="0 0 20 21" fill="none" xmlns="http://www.w3.org/2000/svg">
<path fill-rule="evenodd" clip-rule="evenodd" d="M17 15.1787H16C15.448 15.1787 15 14.7307 15 14.1787V9.17871C15 8.62671 15.448 8.17871 16 8.17871H17C18.105 8.17871 19 9.07371 19 10.1787V13.1787C19 14.2837 18.105 15.1787 17 15.1787Z" stroke="white" stroke-width="1.5" stroke-linecap="round" stroke-linejoin="round"/>
<path fill-rule="evenodd" clip-rule="evenodd" d="M4 15.1787H3C1.895 15.1787 1 14.2837 1 13.1787V10.1787C1 9.07371 1.895 8.17871 3 8.17871H4C4.552 8.17871 5 8.62671 5 9.17871V14.1787C5 14.7307 4.552 15.1787 4 15.1787Z" stroke="white" stroke-width="1.5" stroke-linecap="round" stroke-linejoin="round"/>
<path d="M16.5 8.17871V7.67871C16.5 4.08871 13.59 1.17871 10 1.17871V1.17871C6.41 1.17871 3.5 4.08871 3.5 7.67871V8.17871" stroke="white" stroke-width="1.5" stroke-linecap="round" stroke-linejoin="round"/>
<path fill-rule="evenodd" clip-rule="evenodd" d="M10.625 19.4287H9.375C8.685 19.4287 8.125 18.8687 8.125 18.1787V18.1787C8.125 17.4887 8.685 16.9287 9.375 16.9287H10.625C11.315 16.9287 11.875 17.4887 11.875 18.1787V18.1787C11.875 18.8687 11.315 19.4287 10.625 19.4287Z" stroke="white" stroke-width="1.5" stroke-linecap="round" stroke-linejoin="round"/>
<path d="M11.875 18.1787H14C15.105 18.1787 16 17.2837 16 16.1787V15.1787" stroke="white" stroke-width="1.5" stroke-linecap="round" stroke-linejoin="round"/>
</svg>
