<svg width="15" height="12" viewBox="0 0 15 12" fill="none" xmlns="http://www.w3.org/2000/svg">
<path d="M13.4317 10.6199C13.8885 8.25836 14.7883 3.13494 14.996 1.02687C15.0098 0.840074 14.9822 0.599913 14.996 0.51986C14.9822 0.413122 14.9406 0.266356 14.8022 0.159619C14.6361 0.0261961 14.373 -0.000488281 14.2623 -0.000488281C13.7362 -0.000488281 12.9471 0.266358 9.09854 1.81406C7.75569 2.34775 5.07 3.4685 1.02761 5.16296C0.376947 5.41646 0.0308517 5.65662 0.00316408 5.89678C-0.0522111 6.36376 0.626135 6.51053 1.49829 6.77737C2.20433 7.00419 3.14571 7.25769 3.64408 7.27104C4.08709 7.28438 4.58546 7.09759 5.13922 6.73735C8.91858 4.28237 10.8567 3.04154 10.9813 3.01486C11.0782 3.00152 11.189 2.97483 11.272 3.04154C11.303 3.07312 11.3254 3.1115 11.3375 3.15336C11.3496 3.19521 11.3509 3.23927 11.3412 3.2817C11.272 3.56189 7.72801 6.67064 7.52035 6.87077C6.73125 7.64462 5.84525 8.12494 7.21579 8.99219C8.39251 9.73935 9.0847 10.2197 10.303 10.9935C11.0782 11.4872 11.6873 12.0609 12.4903 11.9942C12.8502 11.9542 13.2378 11.6206 13.4317 10.6199Z" fill="white"/>
</svg>
