<svg width="16" height="16" viewBox="0 0 16 16" fill="none" xmlns="http://www.w3.org/2000/svg">
<path d="M13.6385 2.32795C12.905 1.58726 12.0314 0.999975 11.0686 0.600309C10.1059 0.200642 9.07316 -0.0034104 8.03074 4.31144e-05C3.66292 4.31144e-05 0.10306 3.5599 0.10306 7.92772C0.10306 9.32766 0.471045 10.6876 1.15902 11.8876L0.0390625 15.9994L4.23889 14.8954C5.39884 15.5274 6.70279 15.8634 8.03074 15.8634C12.3986 15.8634 15.9584 12.3035 15.9584 7.93572C15.9584 5.81581 15.1344 3.82389 13.6385 2.32795ZM8.03074 14.5195C6.84679 14.5195 5.68683 14.1995 4.67087 13.5995L4.43088 13.4555L1.93499 14.1115L2.59896 11.6796L2.43897 11.4316C1.78103 10.3813 1.43175 9.16709 1.43101 7.92772C1.43101 4.29587 4.39089 1.33599 8.02274 1.33599C9.78267 1.33599 11.4386 2.02396 12.6785 3.27191C13.2926 3.88298 13.7792 4.60989 14.1102 5.41049C14.4411 6.21108 14.6098 7.06942 14.6065 7.93572C14.6225 11.5676 11.6626 14.5195 8.03074 14.5195ZM11.6466 9.59165C11.4466 9.49566 10.4706 9.01568 10.2946 8.94368C10.1107 8.87968 9.98266 8.84768 9.84666 9.03968C9.71067 9.23967 9.33468 9.68765 9.22269 9.81564C9.11069 9.95164 8.9907 9.96764 8.79071 9.86364C8.59071 9.76765 7.95074 9.55165 7.19877 8.87968C6.6068 8.3517 6.21481 7.70373 6.09482 7.50374C5.98282 7.30375 6.07882 7.19975 6.18281 7.09575C6.27081 7.00776 6.3828 6.86376 6.4788 6.75177C6.5748 6.63977 6.6148 6.55178 6.67879 6.42378C6.74279 6.28779 6.71079 6.17579 6.66279 6.0798C6.61479 5.9838 6.21481 5.00784 6.05482 4.60786C5.89482 4.22387 5.72683 4.27187 5.60684 4.26387H5.22285C5.08686 4.26387 4.87887 4.31187 4.69487 4.51186C4.51888 4.71185 4.0069 5.19183 4.0069 6.16779C4.0069 7.14375 4.71887 8.08771 4.81487 8.21571C4.91086 8.3517 6.21481 10.3516 8.19873 11.2076C8.67071 11.4156 9.0387 11.5356 9.32668 11.6236C9.79867 11.7756 10.2306 11.7516 10.5746 11.7036C10.9586 11.6476 11.7506 11.2236 11.9106 10.7596C12.0786 10.2956 12.0786 9.90364 12.0226 9.81564C11.9666 9.72765 11.8466 9.68765 11.6466 9.59165Z" fill="white"/>
</svg>
