<svg width="20" height="20" viewBox="0 0 20 20" fill="none" xmlns="http://www.w3.org/2000/svg">
<path d="M10.0408 0.178765C4.58078 0.178765 0.130781 4.62877 0.130781 10.0888C0.130781 11.8388 0.590781 13.5388 1.45078 15.0388L0.505631 18.5088C0.303401 19.2513 0.980466 19.9344 1.7247 19.7388L5.30078 18.7988C6.75078 19.5888 8.38078 20.0088 10.0408 20.0088C15.5008 20.0088 19.9508 15.5588 19.9508 10.0988C19.9508 7.44877 18.9208 4.95876 17.0508 3.08876C16.1338 2.16287 15.0418 1.42873 13.8383 0.929127C12.6348 0.429523 11.3439 0.174448 10.0408 0.178765ZM10.0508 1.84876C12.2508 1.84876 14.3108 2.70877 15.8708 4.26876C16.6362 5.03428 17.243 5.94328 17.6566 6.94368C18.0701 7.94409 18.2822 9.01625 18.2808 10.0988C18.2808 14.6388 14.5808 18.3288 10.0408 18.3288C8.56078 18.3288 7.11078 17.9388 5.85078 17.1788C5.65843 17.0698 5.43111 17.0402 5.21729 17.0964L2.43078 17.8288L3.16139 15.1528C3.22475 14.9207 3.18828 14.6728 3.06078 14.4688C2.23533 13.1572 1.79845 11.6385 1.80078 10.0888C1.81078 5.54877 5.50078 1.84876 10.0508 1.84876ZM6.53078 5.50876C6.37078 5.50876 6.10078 5.56876 5.87078 5.81876C5.65078 6.06876 5.00078 6.67876 5.00078 7.88876C5.00078 9.10876 5.89078 10.2788 6.00078 10.4488C6.14078 10.6188 7.76078 13.1188 10.2508 14.1788C10.8408 14.4488 11.3008 14.5988 11.6608 14.7088C12.2508 14.8988 12.7908 14.8688 13.2208 14.8088C13.7008 14.7388 14.6808 14.2088 14.8908 13.6288C15.1008 13.0488 15.1008 12.5588 15.0408 12.4488C14.9708 12.3488 14.8108 12.2888 14.5608 12.1788C14.3108 12.0388 13.0908 11.4388 12.8708 11.3588C12.6408 11.2788 12.5008 11.2388 12.3108 11.4788C12.1508 11.7288 11.6708 12.2888 11.5308 12.4488C11.3808 12.6188 11.2408 12.6388 11.0008 12.5188C10.7408 12.3888 9.94078 12.1288 9.00078 11.2888C8.26078 10.6288 7.77078 9.81877 7.62078 9.56877C7.50078 9.32877 7.61078 9.17877 7.73078 9.06877C7.84078 8.95877 8.00078 8.77876 8.10078 8.62877C8.23078 8.48876 8.27078 8.37877 8.35078 8.21877C8.43078 8.04877 8.39078 7.90876 8.33078 7.78876C8.27078 7.67876 7.77078 6.43876 7.56078 5.94876C7.36078 5.46876 7.16078 5.52877 7.00078 5.51876C6.86078 5.51876 6.70078 5.50876 6.53078 5.50876Z" fill="white"/>
</svg>
