<svg width="311" height="420" viewBox="0 0 311 420" fill="none" xmlns="http://www.w3.org/2000/svg">
<path d="M167.699 513C213.497 513 243.787 499.902 266.08 482.196C284.011 467.885 298.55 450.179 307.759 429.077C309.697 424.468 311.151 419.86 310.909 414.766C310.666 409.915 308.243 405.306 303.639 403.366C301.645 402.405 299.373 402.195 297.237 402.774C295.101 403.353 293.245 404.682 292.008 406.519C274.076 431.017 245.483 445.085 209.135 442.66C158.006 436.111 129.17 415.494 103 378.626C76.8293 341.757 63.7441 294.46 63.7441 232.123C63.7441 192.345 69.5598 156.689 80.9487 125.4C92.3377 94.1107 108.088 69.3703 128.201 51.4213C148.313 33.4724 171.091 24.4979 196.535 24.4979C210.589 24.4979 221.493 27.166 229.005 32.2596C236.759 37.3532 240.394 44.3872 240.394 53.3617C240.394 59.6681 237.244 66.9448 230.944 74.4639C226.582 80.2852 223.189 85.1362 221.493 88.7745C219.555 92.6553 218.585 97.9915 218.585 105.026C218.585 117.153 222.463 126.855 229.974 133.889C237.729 140.923 247.906 144.562 260.506 144.562C273.107 144.562 284.496 139.953 292.008 130.494C299.762 121.277 303.397 108.664 303.397 92.4128C303.397 65.4894 293.704 43.4171 274.319 25.9533C254.933 8.732 229.005 0 196.292 0C152.19 0 112.692 12.1277 77.7985 36.6256C42.6624 60.8809 15.2805 93.8682 -4.34731 135.102C-24.2174 176.336 -33.9102 221.451 -33.9102 270.204C-33.9102 318.958 -25.1867 357.766 -9.19369 393.664C7.76859 431.502 33.6967 462.792 64.4711 481.953C95.4878 501.115 127.958 512.272 167.456 512.272" fill="#9EC590"/>
</svg>
