<svg width="239" height="420" viewBox="0 0 239 420" fill="none" xmlns="http://www.w3.org/2000/svg">
<path d="M106.992 448C149.082 448 176.918 435.974 197.406 419.718C213.886 406.579 227.248 390.322 235.71 370.948C237.492 366.716 238.828 362.485 238.605 357.809C238.382 353.355 236.155 349.123 231.924 347.342C230.092 346.459 228.003 346.266 226.04 346.798C224.077 347.33 222.371 348.55 221.235 350.237C204.755 372.729 178.477 385.645 145.073 383.418C98.0845 377.406 71.5838 358.477 47.5327 324.627C23.4816 290.777 11.4561 247.352 11.4561 190.119C11.4561 153.597 16.8008 120.861 27.2674 92.1334C37.7341 63.4057 52.2093 40.6908 70.693 24.2114C89.1767 7.73197 110.11 -0.507755 133.493 -0.507755C146.409 -0.507755 156.431 1.94188 163.334 6.61848C170.46 11.2951 173.801 17.7532 173.801 25.9929C173.801 31.783 170.906 38.4639 165.116 45.3675C161.107 50.7121 157.989 55.1659 156.431 58.5064C154.649 62.0695 153.758 66.9688 153.758 73.427C153.758 84.5617 157.321 93.4695 164.225 99.9277C171.351 106.386 180.704 109.726 192.284 109.726C203.865 109.726 214.331 105.495 221.235 96.81C228.361 88.3475 231.701 76.7674 231.701 61.8468C231.701 37.1277 222.794 16.8625 204.978 0.828445C187.162 -14.9829 163.334 -23 133.27 -23C92.7397 -23 56.4405 -11.8652 24.3724 10.627C-7.9184 32.8965 -33.0829 63.1831 -51.1212 101.041C-69.3822 138.899 -78.29 180.321 -78.29 225.082C-78.29 269.844 -70.273 305.475 -55.5751 338.434C-39.9865 373.175 -16.1581 401.902 12.1242 419.495C40.6291 437.088 70.4703 447.332 106.77 447.332" fill="#9EC590"/>
</svg>
